<svg width="1440.000000" height="278.000000" viewBox="0 0 1440 278" fill="none" xmlns="http://www.w3.org/2000/svg" xmlns:xlink="http://www.w3.org/1999/xlink">
	<desc>
			Created with Pixso.
	</desc>
	<defs/>
	<path id="Vector 3" d="M19.8435 254.665C31.0608 240.473 40.7708 232.878 58.3188 229.088L98.1941 221.352L135.566 213.267C137.547 212.839 139.594 212.815 141.583 213.2L165.565 217.835C166.506 218.017 167.426 218.288 168.315 218.645C190.719 227.636 234.926 244.991 242.742 246.557C249.993 248.009 314.109 257.548 332.058 233.007C335.43 228.396 339.48 223.807 345.055 222.56L377.036 215.405C380.743 214.576 383.997 212.371 386.142 209.236L403.581 183.741C406.196 179.918 410.432 177.517 415.057 177.237L454.141 174.876C460.679 174.48 465.927 169.326 466.438 162.796C467.033 155.197 473.952 149.701 481.488 150.839L554.606 161.883C556.035 162.099 557.488 162.106 558.919 161.907L604.899 155.491C612.199 154.473 619.158 158.909 621.315 165.958L629.971 194.24C633.091 204.438 645.557 208.213 653.811 201.461L703.146 161.105C705.826 158.914 709.182 157.717 712.644 157.717L734.206 157.717L756.781 157.717C759.617 157.717 762.394 156.913 764.792 155.398L786.272 141.831C790.764 138.994 796.42 138.745 801.144 141.175L864.6 173.814C865.724 174.394 866.917 174.827 868.15 175.106L935.983 190.459C938.016 190.919 939.93 191.797 941.604 193.038L1011.85 245.104C1014.43 247.02 1017.56 248.054 1020.78 248.054C1052.66 248.054 1110.53 248.054 1121.5 248.054C1135.95 248.054 1203.24 191.156 1206.73 191.156C1210.22 191.156 1232.65 145.238 1238.13 135.257C1243.61 125.274 1253.58 111.799 1259.07 105.311C1263.31 100.293 1286.83 80.8809 1299.2 70.876C1300.02 70.209 1300.91 69.6338 1301.86 69.1562L1417.25 10.9697C1427.23 5.93848 1439 13.1904 1439 24.3633L1439 263C1439 271.284 1432.29 278 1424 278L31.7798 278C19.6487 278 12.3208 264.182 19.8435 254.665Z" fill="#D3857A" fill-opacity="1.000000" fill-rule="evenodd"/>
	<path id="Vector 5" d="M20.7729 255.396C31.3669 244.416 40.8318 240.435 57.2031 236.818C57.9453 236.654 58.6755 236.438 59.3857 236.167L95.6101 222.338C97.3184 221.687 99.1313 221.352 100.96 221.352L132.463 221.352C135.467 221.352 138.401 222.254 140.886 223.94L158.169 235.67C159.055 236.271 160.001 236.784 161.008 237.148C183.779 245.374 234.944 244.995 242.742 246.557C250.717 248.153 351.403 273.009 359.876 238.072L369.405 207.062C370.919 202.133 374.86 198.327 379.839 196.985L410.717 188.661L463.161 174.816C464.74 174.399 466.241 173.728 467.603 172.827L486.24 160.511C488.982 158.698 492.244 157.837 495.524 158.059L556.761 162.208L591.968 169.419C597.309 170.514 601.637 174.42 603.27 179.622L609.411 199.188C610.787 203.571 614.095 207.083 618.388 208.716L634.42 214.816C635.807 215.344 637.264 215.663 638.744 215.763L673.679 218.121C678.226 218.428 682.666 216.651 685.745 213.292L708.785 188.161L726.469 166.983C730.753 161.852 738.373 161.13 743.544 165.367C747.753 168.814 753.737 169.055 758.209 165.955L766.74 160.041C768.936 158.519 770.686 156.438 771.808 154.014L773.1 151.22C776.421 144.046 785.524 141.78 791.819 146.562C793.268 147.663 794.941 148.431 796.72 148.811L864.295 163.245C867.221 163.871 869.894 165.356 871.969 167.514L892.58 188.93C894.301 190.719 896.44 192.053 898.804 192.812L931.677 203.361C933.269 203.872 934.764 204.646 936.101 205.649L965.2 227.503C967.026 228.874 969.141 229.811 971.383 230.24L1007.43 237.152C1012.08 238.045 1016.8 236.408 1021.16 234.556C1048.73 222.854 1107.85 255.041 1118.5 255.041C1132.96 255.041 1207.23 198.144 1210.72 198.144C1214.21 198.144 1228.16 144.24 1233.64 134.259C1239.13 124.276 1263.55 123.278 1269.03 116.79C1273.17 111.896 1297.87 77.333 1310.7 65.3115C1312.11 63.9922 1313.85 63.0986 1315.69 62.5391L1368.91 46.4199C1371.08 45.7607 1373.08 44.6162 1374.75 43.0723L1403.27 16.6738C1404.49 15.5479 1405.88 14.6309 1407.4 13.9619L1417.94 9.30371C1427.86 4.92383 1439 12.1846 1439 23.0244L1439 263C1439 271.284 1432.29 278 1424 278L31.7798 278C19.6487 278 12.3496 264.126 20.7729 255.396Z" fill="#933BB1" fill-opacity="1.000000" fill-rule="evenodd"/>
	<path id="Vector 4" d="M0.493164 268.974C-4.5769 242.334 30.6218 233.022 52.1819 240.361C59.009 242.686 67.1213 243.556 73.0237 239.411L97.4636 222.253C98.3149 221.655 99.2451 221.179 100.228 220.839C103.393 219.742 106.884 220.122 109.739 221.875L141.545 241.402C142.263 241.843 143.015 242.228 143.806 242.519C167.043 251.056 236.999 255.967 244.839 257.537C252.38 259.047 305.374 223.356 350.74 244.33C355.701 246.623 361.49 246.908 366.27 244.259L386.443 233.081L415.277 221.169C416.981 220.465 418.541 219.453 419.878 218.184L464.519 175.802C465.646 174.731 466.933 173.843 468.334 173.168L512.397 151.931C517.156 149.638 522.769 150.017 527.177 152.927L565.019 177.92C567.255 179.397 569.055 181.446 570.231 183.854L587.047 218.284C589.139 222.567 593.141 225.601 597.83 226.457L653.907 236.7C657.012 237.268 660.215 236.841 663.063 235.482L700.229 217.746C701.116 217.322 701.959 216.813 702.746 216.226L734.969 192.154L757.407 179.178L774.436 172.109C776.678 171.179 778.661 169.719 780.214 167.853L796.523 148.262C801.481 142.308 810.158 141.108 816.545 145.495L829.299 154.257C830.231 154.897 831.233 155.431 832.285 155.846L863.799 168.286C865.325 168.889 866.741 169.737 867.993 170.798L900.567 198.423C901.521 199.231 902.369 200.156 903.093 201.176L928.599 237.079C931.861 241.671 937.421 244.048 942.994 243.234L1028.57 230.742C1029.29 230.638 1030.01 230.581 1030.74 230.598C1061.35 231.31 1115.1 261.363 1125.88 257.537C1141.33 252.047 1216.62 204.133 1216.62 200.639C1216.62 191.655 1234.51 143.976 1244.05 137.752C1255.52 130.266 1277.76 115.108 1285.93 112.797C1307.15 106.793 1312.15 92.3848 1322.26 82.6211C1323.88 81.0586 1325.96 80.0889 1328.15 79.5742L1350.89 74.2412C1354.64 73.3604 1357.91 71.0684 1360.02 67.8408L1380.23 36.8896C1381.5 34.9492 1383.2 33.3281 1385.2 32.1553L1417.41 13.2559C1427.41 7.38867 1440 14.5996 1440 26.1934L1440 263C1440 271.284 1433.28 278 1425 278L13.0549 278C7.23267 278 1.58179 274.693 0.493164 268.974Z" fill="#401CAE" fill-opacity="1.000000" fill-rule="evenodd"/>
</svg>
