<svg width="576.561523" height="52.080078" viewBox="0 0 576.562 52.0801" fill="none" xmlns="http://www.w3.org/2000/svg" xmlns:xlink="http://www.w3.org/1999/xlink">
	<desc>
			Created with Pixso.
	</desc>
	<defs/>
	<path id="ПрезентаторAI" d="M544.075 41.4401L560.035 41.4401L537.579 6.48499e-05L521.619 6.48499e-05L499.163 41.4401L515.123 41.4401L518.539 35.1681L540.659 35.1681L544.075 41.4401ZM560.602 41.4401L576.562 41.4401L576.562 6.48499e-05L560.602 6.48499e-05L560.602 41.4401ZM524.027 24.9761L529.627 14.7281L535.171 24.9761L524.027 24.9761Z" fill="#5B88E5" fill-opacity="1.000000" fill-rule="evenodd"/>
	<path id="ПрезентаторAI" d="M52.64 41.4401L52.64 6.48499e-05L-6.67572e-06 6.48499e-05L-6.67572e-06 41.4401L15.96 41.4401L15.96 10.9201L36.68 10.9201L36.68 41.4401L52.64 41.4401ZM115.816 27.7201L144.936 27.7201L144.936 25.7041Q144.897 22.2668 143.55 19.4561Q142.966 18.2372 142.136 17.1361C140.344 14.6721 137.806 12.7681 134.52 11.4241C131.272 10.0801 127.502 9.40807 123.208 9.40807Q116.88 9.40807 111.728 11.4801Q106.797 13.4097 103.867 16.9812Q103.735 17.141 103.608 17.3041C101.63 19.8054 100.64 22.6987 100.64 25.9841C100.64 29.2321 101.611 32.1254 103.552 34.6641Q106.52 38.4161 111.672 40.4881Q116.824 42.5601 123.208 42.5601C130.19 42.5601 135.547 41.5147 139.28 39.4241C143.051 37.3334 144.936 33.8987 144.936 29.1201L130.152 29.1201C130.152 31.3601 129.424 32.8721 127.968 33.6561C126.512 34.4401 124.926 34.8321 123.208 34.8321C121.043 34.8321 119.326 34.1787 118.056 32.8721C116.824 31.5654 116.078 29.8481 115.816 27.7201ZM203.644 27.7201L232.764 27.7201L232.764 25.7041Q232.725 22.2668 231.379 19.4561Q230.794 18.2372 229.964 17.1361C228.172 14.6721 225.634 12.7681 222.348 11.4241C219.1 10.0801 215.33 9.40807 211.036 9.40807C206.818 9.40807 202.991 10.0987 199.556 11.4801Q194.625 13.4097 191.695 16.9812Q191.564 17.141 191.436 17.3041C189.458 19.8054 188.468 22.6987 188.468 25.9841C188.468 29.2321 189.439 32.1254 191.38 34.6641Q194.348 38.4161 199.5 40.4881C202.935 41.8694 206.78 42.5601 211.036 42.5601C218.018 42.5601 223.375 41.5147 227.108 39.4241C230.879 37.3334 232.764 33.8987 232.764 29.1201L217.98 29.1201C217.98 31.3601 217.252 32.8721 215.796 33.6561C214.34 34.4401 212.754 34.8321 211.036 34.8321C208.871 34.8321 207.154 34.1787 205.884 32.8721C204.652 31.5654 203.906 29.8481 203.644 27.7201ZM357.98 12.2641C353.575 10.4721 348.591 9.57607 343.028 9.57607C340.042 9.57607 336.962 9.91207 333.788 10.5841C330.615 11.2187 327.871 12.3947 325.556 14.1121C323.242 15.7921 322.084 18.0507 322.084 20.8881L336.924 20.8881C336.924 19.6187 337.503 18.6667 338.66 18.0321C339.855 17.3601 341.311 16.9681 343.028 16.8561C347.359 16.8561 349.562 17.8641 349.636 19.8801L349.636 20.6641Q349.608 21.2087 349.344 21.592Q349.093 21.9574 348.628 22.1761C347.994 22.4374 346.687 22.6241 344.708 22.7361C342.767 22.8107 339.332 22.8481 334.404 22.8481C330.97 22.8481 328.002 23.4641 325.5 24.6961Q324.653 25.1009 323.997 25.7114Q321.748 27.8036 321.748 32.3121C321.748 36.3067 323.074 38.9387 325.724 40.2081C328.412 41.4401 331.156 42.0561 333.956 42.0561C337.652 42.0561 340.919 41.7574 343.756 41.1601C346.631 40.5254 348.535 39.3307 349.468 37.5761L349.468 38.1921L350.476 41.4401L364.644 41.4401L364.644 21.7281C364.644 17.2107 362.423 14.0561 357.98 12.2641ZM443.837 11.7601C440.514 10.3414 436.762 9.63207 432.581 9.63207C428.549 9.63207 424.778 10.3601 421.269 11.8161C417.797 13.2347 415.015 15.2134 412.925 17.7521C410.834 20.2534 409.789 23.0534 409.789 26.1521C409.789 29.2134 410.834 32.0134 412.925 34.5521C415.015 37.0534 417.815 39.0321 421.325 40.4881C424.834 41.9067 428.586 42.6161 432.581 42.6161C436.725 42.6161 440.458 41.9067 443.781 40.4881C447.141 39.0694 449.773 37.1094 451.677 34.6081C453.581 32.0694 454.533 29.2507 454.533 26.1521Q454.533 23.8277 453.835 21.7358Q453.122 19.5941 451.677 17.6961C449.773 15.1574 447.159 13.1787 443.837 11.7601ZM187.928 30.8001C187.928 28.0001 185.987 26.1147 182.104 25.1441C185.352 24.0987 186.976 22.5121 186.976 20.3841C186.976 17.8081 185.912 15.7361 183.784 14.1681C181.693 12.5627 179.136 11.4427 176.112 10.8081Q171.632 9.80007 167.208 9.80007C164.147 9.80007 160.955 10.1547 157.632 10.8641C154.347 11.5361 151.528 12.7121 149.176 14.3921C146.824 16.0347 145.648 18.2187 145.648 20.9441L160.264 20.9441C160.264 19.9361 160.936 19.2081 162.28 18.7601C163.624 18.2747 165.267 18.0321 167.208 18.0321C168.888 18.0321 170.307 18.2561 171.464 18.7041C172.621 19.1147 173.2 19.7681 173.2 20.6641C173.2 21.0747 172.883 21.4481 172.248 21.7841C171.651 22.0827 170.288 22.2321 168.16 22.2321L163.68 22.2321L163.68 28.7281L168.16 28.7281C169.616 28.7281 170.811 28.8961 171.744 29.2321C172.677 29.5307 173.163 30.0161 173.2 30.6881C173.163 31.7334 172.621 32.4427 171.576 32.8161C170.568 33.1894 169.448 33.3761 168.216 33.3761L167.208 33.3201C165.267 33.2081 163.624 32.7787 162.28 32.0321C160.936 31.2854 160.264 30.1654 160.264 28.6721L145.648 28.6721C145.648 30.8374 146.451 32.9467 148.056 35.0001C149.699 37.0534 152.144 38.7521 155.392 40.0961C158.677 41.4401 162.616 42.1121 167.208 42.1121Q176.728 42.1121 182.328 39.3121C186.061 37.4454 187.928 34.6081 187.928 30.8001ZM97.7069 34.4401C98.9762 32.0507 99.6482 29.5307 99.7229 26.8801L99.7229 26.4881C99.6855 23.4267 99.0322 20.6641 97.7629 18.2001C96.4935 15.7361 94.7389 13.7947 92.4989 12.3761Q91.785 11.9163 91.0241 11.5558Q88.2632 10.2481 84.8829 10.2481Q74.8029 9.96806 70.1549 14.6721L69.4829 10.9201L55.7069 10.9201L55.7069 52.0801L70.5469 52.0801L70.5469 38.2481C73.6829 41.0481 78.4615 42.4481 84.8829 42.4481C87.6829 42.4481 90.2029 41.7201 92.4429 40.2641C94.6829 38.7707 96.4375 36.8294 97.7069 34.4401ZM497.91 34.4401C499.179 32.0507 499.851 29.5307 499.926 26.8801L499.926 26.4881C499.889 23.4267 499.235 20.6641 497.966 18.2001Q496.709 15.7599 494.817 14.0032Q493.844 13.0991 492.702 12.3761C490.499 10.9574 487.961 10.2481 485.086 10.2481Q475.006 9.96806 470.358 14.6721L469.686 10.9201L455.91 10.9201L455.91 52.0801L470.75 52.0801L470.75 38.2481C473.886 41.0481 478.665 42.4481 485.086 42.4481C487.886 42.4481 490.406 41.7201 492.646 40.2641C494.886 38.7707 496.641 36.8294 497.91 34.4401ZM261.476 10.9201L261.476 21.5041L248.596 21.5041L248.596 10.9201L234.316 10.9201L234.316 41.4401L248.596 41.4401L248.596 30.5201L261.476 30.5201L261.476 41.4401L276.316 41.4401L276.316 10.9201L261.476 10.9201ZM320.334 21.5601L320.334 10.9201L278.278 10.9201L278.278 21.5601L291.998 21.5601L291.998 41.4401L306.838 41.4401L306.838 21.5601L320.334 21.5601ZM408.655 21.5601L408.655 10.9201L366.599 10.9201L366.599 21.5601L380.319 21.5601L380.319 41.4401L395.159 41.4401L395.159 21.5601L408.655 21.5601ZM118.224 18.2561C119.344 17.3227 121.006 16.8561 123.208 16.8561C125.299 16.8561 126.848 17.3227 127.856 18.2561Q127.913 18.3047 127.968 18.355Q129.441 19.6933 129.872 22.1761L116.04 22.1761C116.414 20.4587 117.142 19.1521 118.224 18.2561ZM206.052 18.2561C207.172 17.3227 208.834 16.8561 211.036 16.8561C213.127 16.8561 214.676 17.3227 215.684 18.2561Q215.741 18.3047 215.796 18.355Q217.269 19.6933 217.7 22.1761L203.868 22.1761C204.242 20.4587 204.97 19.1521 206.052 18.2561ZM72.3127 31.7687Q70.5469 29.7674 70.5469 26.2081L70.5469 26.0401C70.5469 23.9867 71.2189 22.2507 72.5629 20.8321C73.9069 19.3761 75.5682 18.6481 77.5469 18.6481C79.8989 18.6481 81.6909 19.3761 82.9229 20.8321Q83.0234 20.9444 83.1188 21.061Q84.8298 23.1523 84.8829 26.6001Q84.8442 28.764 83.9257 30.448Q83.5131 31.2044 82.9229 31.8641C81.6535 33.2454 79.8615 33.9361 77.5469 33.9361C75.4562 33.9361 73.7575 33.2641 72.4509 31.9201Q72.3805 31.8455 72.3127 31.7687ZM472.516 31.7687Q470.75 29.7674 470.75 26.2081L470.75 26.0401C470.75 23.9867 471.422 22.2507 472.766 20.8321C474.11 19.3761 475.771 18.6481 477.75 18.6481C480.102 18.6481 481.894 19.3761 483.126 20.8321C484.395 22.2507 485.049 24.1734 485.086 26.6001C485.049 28.6907 484.395 30.4454 483.126 31.8641C481.857 33.2454 480.065 33.9361 477.75 33.9361C475.659 33.9361 473.961 33.2641 472.654 31.9201Q472.584 31.8455 472.516 31.7687ZM436.109 32.7041C435.026 33.3014 433.85 33.6001 432.581 33.6001C431.349 33.6001 430.117 33.3014 428.885 32.7041C427.69 32.1067 426.701 31.2481 425.917 30.1281C425.17 28.9707 424.797 27.6454 424.797 26.1521C424.797 24.6587 425.17 23.3521 425.917 22.2321C426.701 21.0747 427.69 20.1974 428.885 19.6001C430.117 19.0027 431.349 18.7041 432.581 18.7041C433.85 18.7041 435.026 19.0027 436.109 19.6001C437.229 20.1974 438.125 21.0561 438.797 22.1761C439.469 23.2961 439.805 24.6214 439.805 26.1521C439.805 27.6827 439.469 29.0081 438.797 30.1281C438.125 31.2481 437.229 32.1067 436.109 32.7041ZM347.564 31.8081C346.37 32.7787 344.764 33.2641 342.748 33.2641C340.77 33.2641 339.295 33.0587 338.324 32.6481C337.391 32.2001 336.85 31.4907 336.7 30.5201C336.7 29.3627 337.26 28.5601 338.38 28.1121C339.5 27.6641 341.46 27.4401 344.26 27.4401C346.426 27.4401 348.199 27.2534 349.58 26.8801L349.58 27.7761C349.468 29.4934 348.796 30.8374 347.564 31.8081Z" fill="#FFFFFF" fill-opacity="1.000000" fill-rule="evenodd"/>
</svg>
