<svg width="36.000000" height="36.000000" viewBox="0 0 36 36" fill="none" xmlns="http://www.w3.org/2000/svg" xmlns:xlink="http://www.w3.org/1999/xlink">
	<desc>
			Created with Pixso.
	</desc>
	<defs/>
	<path id="Vector" d="M4 0C1.79004 0 0 1.79004 0 4L0 32C0 34.21 1.79004 36 4 36L32 36C34.21 36 36 34.21 36 32L36 4C36 1.79004 34.21 0 32 0L4 0ZM4 4L32 4L32 32L4 32L4 4ZM17.582 11.7148C16.402 11.7051 15.402 11.7197 14.8359 11.9961C14.46 12.1797 14.1697 12.5928 14.3477 12.6172C14.5657 12.6455 15.0582 12.749 15.3242 13.1094C15.6622 13.5713 15.6523 14.6094 15.6523 14.6094C15.6523 14.6094 15.8453 17.4639 15.1953 17.8203C14.7493 18.0645 14.1382 17.5693 12.8242 15.2969C12.1503 14.1309 11.6445 12.8438 11.6445 12.8438C11.6445 12.8438 11.545 12.6006 11.3711 12.4727C11.1571 12.3164 10.8594 12.2656 10.8594 12.2656L7.71875 12.2812C7.71875 12.2812 7.24426 12.2822 7.07031 12.4883C6.91626 12.6719 7.05859 13.0352 7.05859 13.0352C7.05859 13.0352 9.52063 18.7734 12.3086 21.6797C14.8666 24.3438 17.7656 24.1016 17.7656 24.1016L19.082 24.1016C19.082 24.1016 19.4816 24.124 19.6836 23.9062C19.8696 23.7041 19.8633 23.3906 19.8633 23.3906C19.8633 23.3906 19.8383 21.623 20.6562 21.3633C21.4642 21.1074 22.4996 23.0703 23.5977 23.8242C24.4257 24.3965 25.0586 24.2734 25.0586 24.2734L27.9961 24.2344C27.9961 24.2344 29.5306 24.1377 28.8086 22.9219C28.7485 22.8223 28.385 22.0264 26.625 20.3906C24.781 18.6787 25.0281 18.9541 27.2461 15.9922C28.5981 14.1904 29.1388 13.0889 28.9688 12.6172C28.8068 12.165 27.8125 12.2852 27.8125 12.2852L24.5078 12.3047C24.5078 12.3047 24.2601 12.2686 24.0781 12.3789C23.9001 12.4873 23.7852 12.7344 23.7852 12.7344C23.7852 12.7344 23.2625 14.1318 22.5625 15.3203C21.0925 17.8262 20.5037 17.957 20.2617 17.8008C19.7017 17.4404 19.8438 16.3486 19.8438 15.5703C19.8438 13.1426 20.209 12.1289 19.125 11.8672C18.765 11.7793 18.5021 11.7246 17.582 11.7148Z" fill="#FFFFFF" fill-opacity="1.000000" fill-rule="nonzero"/>
</svg>
