<svg width="40.000000" height="32.000000" viewBox="0 0 40 32" fill="none" xmlns="http://www.w3.org/2000/svg" xmlns:xlink="http://www.w3.org/1999/xlink">
	<desc>
			Created with Pixso.
	</desc>
	<defs/>
	<path id="Vector" d="M20 0C20 0 7.49109 0 4.37109 0.835938C2.64905 1.2959 1.2959 2.65137 0.835938 4.37109C-0.00012207 7.49121 0 16 0 16C0 16 -0.00012207 24.5088 0.835938 27.6289C1.2959 29.3506 2.65112 30.7041 4.37109 31.1641C7.49109 32 20 32 20 32C20 32 32.5089 32 35.6289 31.1641C37.3489 30.7041 38.7041 29.3486 39.1641 27.6289C40 24.5088 40 16 40 16C40 16 40 7.49121 39.1641 4.37109C38.7041 2.65137 37.3489 1.2959 35.6289 0.835938C32.5089 0 20 0 20 0ZM20 4C25.764 4 32.9817 4.26758 34.5938 4.69922C34.9318 4.78906 35.2087 5.06641 35.3008 5.40625C35.7828 7.20215 36 12.6836 36 16C36 19.3164 35.7828 24.7959 35.3008 26.5938C35.2108 26.9316 34.9337 27.209 34.5938 27.3008C32.9838 27.7324 25.764 28 20 28C14.238 28 7.02026 27.7324 5.40625 27.3008C5.06824 27.2109 4.79126 26.9336 4.69922 26.5938C4.21716 24.7979 4 19.3164 4 16C4 12.6836 4.21716 7.20215 4.69922 5.40234C4.78918 5.06641 5.06628 4.78906 5.40625 4.69922C7.01624 4.26758 14.236 4 20 4ZM16 9.07031L16 22.9297L28 16L16 9.07031Z" fill="#FFFFFF" fill-opacity="1.000000" fill-rule="nonzero"/>
</svg>
