<svg width="39.990723" height="35.998047" viewBox="0 0 39.9907 35.998" fill="none" xmlns="http://www.w3.org/2000/svg" xmlns:xlink="http://www.w3.org/1999/xlink">
	<desc>
			Created with Pixso.
	</desc>
	<defs/>
	<path id="Vector" d="M37.1367 0.0214844C36.4719 -0.0488281 35.7494 0.0546875 35.0234 0.341797C34.1234 0.695312 20.021 6.62793 6.875 12.1621L2.53125 13.9902C0.849243 14.6719 0 15.7812 0 17.2754C0 18.3213 0.442627 19.7402 2.55469 20.5762L9.88672 23.5137C10.5208 25.415 11.9933 29.832 12.3633 31.0059C12.5833 31.7021 13.1389 33.4551 14.543 33.8652C14.8309 33.9629 15.1315 34.0137 15.4375 34.0137C16.3235 34.0137 16.9614 33.6016 17.2734 33.3613L21.9336 29.4199L27.5938 34.6543C27.8118 34.876 28.9656 35.998 30.5156 35.998C32.4496 35.998 33.9166 34.3877 34.2227 32.8301C34.3887 31.9756 39.8477 4.57227 39.8477 4.57617C40.3376 2.37793 39.4567 1.2373 38.8906 0.751953C38.4056 0.336914 37.8015 0.0917969 37.1367 0.0214844ZM35.8125 4.3418C35.0585 8.12207 30.9482 28.7539 30.3242 31.7285L22.0508 24.0762L16.4375 28.8301L17.9922 22.748C17.9922 22.748 28.7173 11.8916 29.3633 11.2598C29.8833 10.7539 29.9922 10.5762 29.9922 10.4004C29.9922 10.166 29.8717 9.99805 29.5938 9.99805C29.3438 9.99805 29.0043 10.2373 28.8242 10.3496C26.5375 11.7754 16.8004 17.3223 12.0078 20.0488L5.05469 17.2715L8.42969 15.8535C17.0277 12.2334 32.3405 5.78516 35.8125 4.3418Z" fill="#FFFFFF" fill-opacity="1.000000" fill-rule="nonzero"/>
</svg>
