<svg width="22.000000" height="22.000000" viewBox="0 0 22 22" fill="none" xmlns="http://www.w3.org/2000/svg" xmlns:xlink="http://www.w3.org/1999/xlink">
	<desc>
			Created with Pixso.
	</desc>
	<defs>
		<clipPath id="clip97_1619">
			<rect id="Telegram App" width="22.000000" height="22.000000" fill="white" fill-opacity="0"/>
		</clipPath>
		<linearGradient id="paint_linear_97_1620_0" x1="1.836914" y1="19.250004" x2="20.165974" y2="2.750978" gradientUnits="userSpaceOnUse">
			<stop stop-color="#2D13AC"/>
			<stop offset="0.266000" stop-color="#823BB6"/>
			<stop offset="0.651000" stop-color="#B93CA6"/>
			<stop offset="1.000000" stop-color="#E6BA5B"/>
		</linearGradient>
	</defs>
	<rect id="Telegram App" width="22.000000" height="22.000000" fill="#FFFFFF" fill-opacity="0"/>
	<g clip-path="url(#clip97_1619)">
		<path id="Vector" d="M18.8579 2.76074C18.5532 2.72852 18.2222 2.77588 17.8892 2.90771C17.4771 3.06982 11.0132 5.78857 4.98779 8.3252L2.99707 9.16309C2.22607 9.47559 1.83691 9.98389 1.83691 10.6689C1.83691 11.1484 2.04004 11.7983 3.00781 12.1816L6.36816 13.5278C6.65869 14.3999 7.33398 16.4238 7.50342 16.9619C7.60449 17.2808 7.85889 18.0845 8.50244 18.2725C8.63428 18.3174 8.77197 18.3403 8.9126 18.3403C9.31836 18.3403 9.61084 18.1514 9.75391 18.0415L11.8896 16.2349L14.4839 18.6343C14.584 18.7358 15.1128 19.25 15.8232 19.25C16.7095 19.25 17.3818 18.5122 17.5225 17.7979C17.5981 17.4067 20.1006 4.84668 20.1006 4.84814C20.3252 3.84082 19.9214 3.31836 19.6616 3.0957C19.4395 2.90527 19.1626 2.79297 18.8579 2.76074ZM18.251 4.74072C17.9053 6.47314 16.0215 15.9302 15.7354 17.293L11.9434 13.7856L9.37061 15.9648L10.0835 13.1772C10.0835 13.1772 14.999 8.20117 15.2949 7.91162C15.5332 7.67969 15.5835 7.59863 15.5835 7.51758C15.5835 7.41064 15.5283 7.3335 15.4009 7.3335C15.2861 7.3335 15.1304 7.44336 15.0479 7.49463C14 8.14795 9.53711 10.6904 7.34033 11.9399L4.15381 10.667L5.70068 10.0171C9.64111 8.35791 16.6597 5.40283 18.251 4.74072Z" fill="url(#paint_linear_97_1620_0)" fill-opacity="1.000000" fill-rule="nonzero"/>
	</g>
</svg>
