<svg width="22.000000" height="22.000000" viewBox="0 0 22 22" fill="none" xmlns="http://www.w3.org/2000/svg" xmlns:xlink="http://www.w3.org/1999/xlink">
	<desc>
			Created with Pixso.
	</desc>
	<defs>
		<clipPath id="clip97_1621">
			<rect id="VK com" width="22.000000" height="22.000000" fill="white" fill-opacity="0"/>
		</clipPath>
		<linearGradient id="paint_linear_97_1622_0" x1="2.750002" y1="19.250002" x2="19.249998" y2="2.750006" gradientUnits="userSpaceOnUse">
			<stop stop-color="#2D13AC"/>
			<stop offset="0.266000" stop-color="#823BB6"/>
			<stop offset="0.651000" stop-color="#B93CA6"/>
			<stop offset="1.000000" stop-color="#E6BA5B"/>
		</linearGradient>
	</defs>
	<rect id="VK com" width="22.000000" height="22.000000" fill="#FFFFFF" fill-opacity="0"/>
	<g clip-path="url(#clip97_1621)">
		<path id="Vector" d="M4.5835 2.75C3.57031 2.75 2.75 3.57031 2.75 4.5835L2.75 17.4165C2.75 18.4297 3.57031 19.25 4.5835 19.25L17.4165 19.25C18.4297 19.25 19.25 18.4297 19.25 17.4165L19.25 4.5835C19.25 3.57031 18.4297 2.75 17.4165 2.75L4.5835 2.75ZM4.5835 4.5835L17.4165 4.5835L17.4165 17.4165L4.5835 17.4165L4.5835 4.5835ZM10.8086 8.11914C10.2676 8.11475 9.80908 8.12158 9.5498 8.24805C9.37744 8.33252 9.24463 8.52197 9.32617 8.53271C9.42578 8.5459 9.65186 8.59326 9.77344 8.7583C9.92871 8.97021 9.92383 9.4458 9.92383 9.4458C9.92383 9.4458 10.0122 10.7544 9.71436 10.9175C9.51025 11.0293 9.22998 10.8022 8.62793 9.76123C8.31885 9.22656 8.08691 8.63672 8.08691 8.63672C8.08691 8.63672 8.0415 8.52539 7.96191 8.4668C7.86377 8.39502 7.72705 8.37158 7.72705 8.37158L6.2876 8.37891C6.2876 8.37891 6.07031 8.37939 5.99072 8.47363C5.91992 8.55811 5.98535 8.72461 5.98535 8.72461C5.98535 8.72461 7.11377 11.3545 8.3916 12.6865C9.56396 13.9077 10.8926 13.7964 10.8926 13.7964L11.4961 13.7964C11.4961 13.7964 11.6792 13.8071 11.7715 13.707C11.8569 13.6143 11.854 13.4707 11.854 13.4707C11.854 13.4707 11.8428 12.6606 12.2173 12.5415C12.5879 12.4243 13.0625 13.3237 13.5654 13.6694C13.9453 13.9316 14.2354 13.8755 14.2354 13.8755L15.5815 13.8574C15.5815 13.8574 16.2847 13.813 15.9541 13.2559C15.9263 13.21 15.7598 12.8457 14.9531 12.0957C14.1079 11.311 14.2212 11.4375 15.2378 10.0796C15.8574 9.25391 16.1055 8.74902 16.0273 8.53271C15.9531 8.32568 15.4976 8.38086 15.4976 8.38086L13.9829 8.38965C13.9829 8.38965 13.8691 8.37305 13.7856 8.42383C13.7041 8.47314 13.6514 8.58643 13.6514 8.58643C13.6514 8.58643 13.4121 9.22754 13.0913 9.77197C12.4175 10.9204 12.1475 10.98 12.0366 10.9087C11.7798 10.7437 11.8452 10.2432 11.8452 9.88623C11.8452 8.77344 12.0127 8.30908 11.5156 8.18896C11.3506 8.14893 11.23 8.12402 10.8086 8.11914Z" fill="url(#paint_linear_97_1622_0)" fill-opacity="1.000000" fill-rule="nonzero"/>
	</g>
</svg>
