<svg width="22.000000" height="22.000000" viewBox="0 0 22 22" fill="none" xmlns="http://www.w3.org/2000/svg" xmlns:xlink="http://www.w3.org/1999/xlink">
	<desc>
			Created with Pixso.
	</desc>
	<defs>
		<clipPath id="clip97_1615">
			<rect id="YouTube" width="22.000000" height="22.000000" fill="white" fill-opacity="0"/>
		</clipPath>
		<linearGradient id="paint_linear_97_1616_0" x1="1.833494" y1="18.333662" x2="20.166824" y2="3.666998" gradientUnits="userSpaceOnUse">
			<stop stop-color="#2D13AC"/>
			<stop offset="0.266000" stop-color="#823BB6"/>
			<stop offset="0.651000" stop-color="#B93CA6"/>
			<stop offset="1.000000" stop-color="#E6BA5B"/>
		</linearGradient>
	</defs>
	<rect id="YouTube" width="22.000000" height="22.000000" fill="#FFFFFF" fill-opacity="0"/>
	<g clip-path="url(#clip97_1615)">
		<path id="Vector" d="M11 3.66699C11 3.66699 5.26709 3.66699 3.83691 4.05029C3.04785 4.26074 2.42725 4.88184 2.2168 5.67041C1.8335 7.10059 1.8335 11.0005 1.8335 11.0005C1.8335 11.0005 1.8335 14.9004 2.2168 16.3301C2.42725 17.1196 3.04834 17.7397 3.83691 17.9507C5.26709 18.3335 11 18.3335 11 18.3335C11 18.3335 16.7334 18.3335 18.1636 17.9507C18.9517 17.7397 19.5728 17.1187 19.7837 16.3301C20.167 14.9004 20.167 11.0005 20.167 11.0005C20.167 11.0005 20.167 7.10059 19.7837 5.67041C19.5728 4.88184 18.9517 4.26074 18.1636 4.05029C16.7334 3.66699 11 3.66699 11 3.66699ZM11 5.50049C13.6421 5.50049 16.9502 5.62256 17.689 5.8208C17.8438 5.86182 17.9707 5.98926 18.0132 6.14502C18.2339 6.96826 18.3335 9.48047 18.3335 11.0005C18.3335 12.52 18.2339 15.0317 18.0132 15.856C17.9717 16.0107 17.8447 16.1377 17.689 16.1797C16.9512 16.3779 13.6421 16.5005 11 16.5005C8.35938 16.5005 5.05127 16.3779 4.31152 16.1797C4.15625 16.1387 4.0293 16.0117 3.9873 15.856C3.7666 15.0327 3.66699 12.52 3.66699 11.0005C3.66699 9.48047 3.7666 6.96826 3.9873 6.14307C4.02832 5.98926 4.15576 5.86182 4.31152 5.8208C5.04932 5.62256 8.3584 5.50049 11 5.50049ZM9.16699 7.82422L9.16699 14.1763L14.667 11.0005L9.16699 7.82422Z" fill="url(#paint_linear_97_1616_0)" fill-opacity="1.000000" fill-rule="nonzero"/>
	</g>
</svg>
